<mxfile host="65bd71144e">
    <diagram id="2y43Xw60NI2H8NhYmQdp" name="PÃ¡gina-1">
        <mxGraphModel dx="1640" dy="1899" grid="1" gridSize="10" guides="1" tooltips="1" connect="1" arrows="1" fold="1" page="1" pageScale="1" pageWidth="827" pageHeight="1169" math="0" shadow="0">
            <root>
                <mxCell id="0"/>
                <mxCell id="1" parent="0"/>
                <mxCell id="2" value="" style="shape=image;verticalLabelPosition=bottom;labelBackgroundColor=default;verticalAlign=top;aspect=fixed;imageAspect=0;image=data:image/png,iVBORw0KGgoAAAANSUhEUgAAAvkAAASSCAYAAAArX/HbAAAABHNCSVQICAgIfAhkiAAAIABJREFUeJzs3Xu4XXd5H/jvPhfddSRLso1tbIhtSZSQAha2xCVNgNJJI0IgbSgzJKV9WsjzlAmGGmimT5p20jwhCbhcMu60eNLmRksoMxCCS1pP7SYBX7CPgSkXWRbg2NjCtiQfHetydG57/jg69rE4d+29196/9fn40cPZe6+19ruOHtb67lfvWrsRAKjI9cnWZnJVI3l+kisG09jZTOOKRnJxM80LmsnmZprrp5M1zWSgkfTPrttMphrJZF8y3kjjdCN5qpHGk83ksWaaD02l+UCSh5rJg43k2x9NRirbUYAOa1RdAAD18K7kRUn2DKTx15K+lzYzfWXSXD+QgVPrMji9NoNr12Zww2AGGwPpz0D605++9KcvfWk8/d+s5tn/ptPMVKYzlelMZiqTmcpEJjOW8RNjmZgYz0RjMpMbksbp/vR9u5Hpr55J88+TDH8s+XplvxCANhLyAWiLdyWvGkz/30zyuqlM/chg+s+sy7rpoawbWp91/euyJmsy0LF6xmeCf05nbGo0Y6NjGeubyNTa/vT/jyS3TmTqCx9LvtixggDaSMgHoCWuTy5O8sY16f+fJzK1d00GTm3OxoGt2Ti0Mesy8MykTdeYzFROZizHc3J0NCcnxzO5YTD9d09k6j80kz/+aPJY1TUCrIaQD8CqvTPZvjZ5a1/6//5Upl64KRue2p6h7UPZ0JWhfimTmcpoTuVoRo+eyKnN/en/5lSmfnc8+cObkqNV1wewXEI+ACv27mT/YPpuOJPpv3ZBNjy5PVt2bM2mqstquZGcyNEcP/JkTl2wNn1/PpHpGz+S3FJ1XQBLEfIBWJZ/lGxan/73NjP9C2syMHhRtm7dli39fTU4lUynmSM5PnkkI8fHMznRl/5/cyqTN/7r5ETVtQHMp/wjMwDn5d3JJWsy8C8nMvnzQ9l0/Dm54MKNWVd1WZU5mbF8P08+MZoTWwYy8PsTmfyVjySHq64LYC4hH4B5vTPZvjEDHxzP5Nu2ZWjk0mzf1sm74XS78UzmcI4eO5rRrYMZ+N1TmXy/uX2gWwj5APyA92XwNycz8e4LMjR6WbbvGBTuFzSRyTyao0ePZXTzQAY/8sFM/JOqawIQ8gF42j9O/lYjjY9tyPrBy3PhheuypuqSesZYxvNwnnjiVE5PTKX5ix9J/p+qawLqS8gHIDckO/rS9wdJY+8VufiCLdlYdUk963hO5qE89mQjzS9PZfrnbkyOVF0TUD9CPkDN3ZC+t06n+X9emKHJ5+aiC6qupxQP5fFjRzM62EjjH/2rTP9h1fUA9SLkA9TYezPwiWaaP3llLtm6OeurLqc4T+V0vpPDI400/vOHMvnWqusB6kPIB6ihdyVXrEn/LRuz9qIrc+lFDaeDtmmmme/k0cdP5szj45na/7HkoaprAsrnqA5QM7+Y/Gh/Gp+7NBfkOdm+tep66uJwjo4czpOZSvMNv538RdX1AGXrr7oAADrnvel7y3San7syF6+9MBdsqLqeOtmcDevWZnDNSE687ZXpu//ONL9RdU1AuYR8gJp4XwbfMZmpf7Mrz12zJZv6qq6njtZnbWNzNvQdzfHX/1gGjnwp08NV1wSUScgHqIEb0vcPJzP9kd25fP0mF9hWam0GM5SNA4/l+Gtelb7H7kjzK1XXBJRHyAco3LuTn2mm+Tu7c/n6jVlXdTkkWZOBDGXD4BM5/j+9Mvnmncm3qq4JKIsLbwEK9q5kTyO5c2cuGxyKEfxuM5pTeSCPTDSTl38sMboDtIyQD1CoX0yGBtI48NxceMGF2aKF36WO5Pjph/PEyGSaL/jtZLTqeoAyuPAKoFBrM/DHOzK0RsDvbjuyZf22DK1dm4E/rroWoBxm8gEK9L70/cpgBl5/VS7dUXUtLG1rNq4/lqc27ktz3R1p/nnV9QC9z7gOQGHelezsSw78lTyvb33WVF0Oy3Q64/lW/nJ6OnnBx5IHqq4H6G3GdQAKszb9v/OcbHtKwO8t67MmF2fbibXp/52qawF6n5APUJDrk9c3khddmu1bqq6Flbss24cayYuuT15fdS1AbxPyAQoymP4PXZYLt1ZdB6t3WS7cOpj+D1VdB9DbhHyAQrwn+am+NC68IJtdb9XDLsjmRl8aF74n+amqawF6l5APUIi+9P+zS7LNmE4BLs22LX3p/2dV1wH0LiEfoADXJ7unMv3D27PFrZELsC1b+qcy/cPXJ7urrgXoTUI+QAEG0/8Pt2foTNV10DrbsnlsMP3/sOo6gN4k5AMUYDrNn9mezRdUXQetsyND26bT/Jmq6wB6k5AP0OPek1yWNC/dlPVVl0ILzfx9Ni+d+fsFWBkhH6DHTSWvXJ91J6uug9bbkHWnppJXVl0H0HuEfIAetyaNH9+U9RurrmM1fr55sGXLLXdbvWRz1m8cTOPVVdcB9B4hH6DHTafvxRuzbl3VdazGHzR2tWy55W6rl6zPurVJ31+tug6g9wj5AD2ukekr1maw6jJWZW73ffbnn28e/IGu/HyPl7tML3f4Z/5ep6+oug6g9wxUXQAA52c6zQsGU8bt8X++efDpjvzcn89nmcWW63aD6c90mu6aBKyYTj5Aj5tO1vcXcjhfaRDvxeC+Ev3py3TcNglYuTLOCgD11UjS10ij6jpog7N/r87VwIo5cAD0tmaS6WaaVddBG5z9e52uug6g9wj5AD2uLzk9VdMc2MsX1S7HVKbTl5yuug6g97jwFqDH9aXx5ESmNg4UcvHtUv6gsevpcL/QTP7cZRZbrttNZCp9aTwZ/1IDrJAhToAe997033FFLn751vTk92GxiJGczEN57M4PZeoVVdcC9BbjOgA9rpnpr5zK6fGq66D1Tmdsopnpr1RdB9B7hHyAHjeR5p89lbGnqq6D1hvN6dGJNP+s6jqA3iPkA/S4/uRLpzNmVqdApzO2sT/5UtV1AL1HyAfocR9OHkkaj55wE5aizPx9Nh6d+fsFWBkhH6AAjTT+7yMZHam6DlrnSEZHmml8uuo6gN4k5AMUYDJTv3MsT62pug5a51ieWjOdqX9XdR1AbxLyAQrw0eT+/vR941iOu6F6AY5mNP3p+8ZHk/urrgXoTUI+QCGmM/UvD+fYsarr4Px9P0ePTmfqX1ZdB9C7hHyAQnw4+ZOpNI88mRNVl8J5eDInMpnmEx9O/qTqWoDeJeQDFGQiU+//Xh5/suo6WL3v5fEnpzP1/qrrAHqbkA9QkI8mn0vy9e/n6GjVtbByh3PsqSRf18UHzpeQD1CYM5n6B4/m2KbTGa+6FFbgdMZzOEc3nsnUP6i6FqD39VddAACtdXdy7EfTNz2S03/1omzZUHU9LM/BPHKkP80P/Ks0P1t1LUDva1RdAADt8d4M3L4lG1/0vFy0o+paWNzDefzoSE58/YOZ+vGqawHKYFwHoFBnMvnTxzI68USOm9vpYsdyfOxIRsfHMvWGqmsByiHkAxTqt5PRqTR/6qE83hjNqarLYR6jOZXv5vH+qTR/6rcTF0sDLSPkAxTsY8lwkjcfyiNnTmas6nKY42TGciiPnEny5rN/TwAt48JbgMLdnRx4VfoeeyKjrx3KhsE1Gai6pNo7mbHcn++dGkzfu/5Vmv+h6nqA8gj5ADVwR5r3vSp9TzyR46/blA0DazNYdUm19VRO52C+N9afvPtDad5cdT1AmYR8gJq4I837Xp6+7z6R429cn8Gp9VnrHNBhRzM6eSiHm4Ppe9uNaf5e1fUA5XILTYCa+cXkR/vT+NxzckHj0mzfUnU9dfFojh7/fp5sTqX5ht9O/qLqeoCyCfkANfSu5Io16b9lY9ZdeGUuubjhdNA2zTTznTz6+MmceXw8U/s/ljxUdU1A+RzVAWrs/Rn4w6k091+ZS7ZuzvqqyynOUzmd7+TwSH8at/xWJn+u6nqA+hDyAWruhvT9/HSaN23P0MQVuWhb1fWU4nt5/OgTGV3Tl8Y7b8z0H1RdD1AvQj4AuSHZ0Ze+P0gae6/IxRdsycaqS+pZx3MyD+WxJ5Pm3dOZ/vkbkyNV1wTUj5APwNP+cfp/tpHmRzZm3cBzc+FF67Km6pJ6xljG87088fjJjE0m09ffmHy66pqA+hLyAfgB783gb0xl4j3bM/TUJdm+fdAXaC1oIpM5nKNHj2Z0c3/6P/yhTP1S1TUBCPkAzOudyfaNGfjgeCbftiNDTz4n27f7ttxnjGcyj+bosWMZ3bomA793MpPvuyk5WnVdAImQD8AS3p1cMpiBX53M5N8dysbR52Tbjo1ZV3VZlTmZsTyWY0eO5+TQYAZ+bzyT//wjyeGq6wKYS8gHYFn+UbJpY/rfN53pdwxmYPCibB3ali2DfTU4lUynmaM5PvFERkYnMjnRl75/ezJTH/rXyYmqawOYT/lHZgBa7t3J/oH0/ePxTP/YlmwYuTBbtm/NpqrLarmRnMjRHD/yZE5dsDZ9fz6R6Rs/ktxSdV0ASxHyAVi1dybb1yU/10j/35vK1As3Z8PotgztGMqGDKS/6vJWbDJTGc2pHM3o0RM5tbk//d9Mpn7vdPIH5u2BXiLkA9AS1ycX96fvDX3p+18mM7lvbQZOD2XjwFA2bt6YdV0Z+iczlZMZy2hOPnU8JyfGM7lhIAN3TWbyE83kTz6aPFZ1jQCrIeQD0BbvSl41mP79jeSvT2bqRYPpP7Mh66Y2ZN3QxqwbWJc16eTdesYzmbGM51TGJk5m7KlTGeufyNTagfR/Pcmt45n6zx9LvtixggDaSMgHoCPelbwoyZ41afxo0vfSqUxflTTXD2Tg1JoMNjdkzZo1Gdw4mIEMpD8D6U9/+tKfvvSl8fR/s5pn/5tOM1OZzlSmM5mpTGYqE5nMmYyfHMvE+JlMNCYzuSFpnO5P37eT6a+Mp/kXSYY/lny9sl8IQBsJ+QBU5vpkazO5qpE8v5E8ry+NXX1pPDfJxc00L2gmm5tprp9O1jSTgUaemflpJlONZLIvGW+kcbqRPNVI48lm8njSfGgyzUNJHmwmDzaSb380GaluTwEAgMU0qy4AoNv1VV0AAADQWkI+AAAURsgHAIDCCPkAAFAYIR8AAAoj5AMAQGGEfAAAKIyQDwAAhRHyAQCgMEI+AAAURsgHAIDCCPkAAFAYIR8AAAoj5AMAQGGEfAAAKIyQDwAAhRHyAQCgMEI+AAAURsgHAIDCCPkAAFAYIR8AAAoj5AMAQGGEfAAAKIyQDwAAhRHyAQCgMEI+AAAURsgHAIDCCPkAAFAYIR8AAAoj5AMAQGGEfAAAKIyQDwAAhRHyAQCgMEI+AAAURsgHAIDCCPkAAFAYIR8AAAoj5AMAQGGEfAAAKIyQDwAAhRHyAQCgMEI+AAAURsgHAIDCCPkAAFAYIR8AAAoj5AMAQGGEfAAAKIyQDwAAhRHyAQCgMEI+AAAURsgHAIDCCPkAAFAYIR8AAAoj5AMAQGGEfAAAKIyQDwAAhRHyAQCgMEI+AAAURsgHAIDCCPkAAFAYIR+AbndDktNJrj/n+evPPn9DxysCAADOy+Yk40lOJTmSpJnk6NnH42dfBwAAeswHkpzJTMCf/XPm7PMAAEAP2pxkLM8O+WPRxQcAgJ42t5uviw8AAAWY283XxQcAgEJ8IDMX2+riAwBAITYn+XR08QEW1ai6AAC6yBuyOVvz/+VMnl91KZy1Lg/myfzVfC5PVV0K0DsGqi4AgC6yIW/M2lyQF1VdCElmvg3goXxHwAdWyjfeAvCMRv5etmVL1WVw1rEcz3R+r+oygN4j5AMw4w3ZnOm8JlurLoQkyVSS0WzJ6Xym6lKA3iPkAzBjQ96YoRxPf9WFkCQZSdKX24zqAKsh5AMww6hOdzGqA5wHIR8AozrdxqgOcJ6EfACM6nQbozrAeRLyATCq022M6gDnScgHqDujOt3FqA7QAkI+QN0Z1ekuRnWAFhDyAerOqE53MaoDtICQD1BnRnW6i1EdoEWEfIA6M6rTXYzqAC0i5APUmVGd7mJUB2gRIR+grozqdBejOkALCfkAdWVUp7sY1QFaSMgHqCujOt3FqA7QQkI+QB0Z1ekuRnWAFhPyAerIqE53MaoDtJiQD1BHRnW6i1EdoMWEfIC6MarTXYzqAG0g5APUzfq8yahOFzGqA7SBkA9QN315m1GdLmJUB2gDIR+gTozqdBejOkCbCPkAdVKDUZ3m+5pVl7B8RnWANhHyAeqkBqM6jQ82qi5h+YzqAG0i5APURZeM6sx22pvva/5A133ua3Ofm2/ZpbaxnPUrZVQHaKOBqgsAoEOeGdWpvJPffF/z6Y773J9X+9q5y823/GLLVcKoDtBGOvkAddFFozqLBe3VhPCuCe4rYVQHaCOdfIA66JJRndXoujGbVjCqA7SZkA9QB100qrNSPdmlX4pRHaDNjOsA1EEXjeokq+/OL7Rez3X7jeoAbaaTD1C6LhzVaXyw8XQwX2o+f26An7vscrax2PqVMaoDdEAXHO0AaKu/k7+boXwsO7ujk99Vd7ipwtEkD+W2/Me8tupSgHIZ1wEoXZeN6tSeUR2gA2rcSgGogTdkc9ZnNC9J0l91MWQqyVeTnM6Qi26BdtLJByjZM3fVoRu4qw7QIUI+QMmM6nQXozpAhwj5AKXqwrvq1Jq76gAdJOQDlMqoTncxqgN0kJAPUCqjOt3lWI6nmd+tugygHnwZFkCJjOp0l2dGdT5bdSlAPejkA5TIqE53MaoDdJiQD1AiozrdxagO0GHGdQBKY1SnuxjVASqgkw9QGqM63cWoDlABIR+gNEZ1uotRHaACxnUASmJUp7sY1QEqopMPUBKjOt3FqA5QESEfoCRGdbqLUR2gIsZ1AEphVKe7GNUBKqSTD1AKozrdxagOUCEhH6AURnW6i1EdoELGdQBKYFSnuxjVASqmkw9QAqM63cWoDlAxIR+gBEZ1uotRHaBixnUAep1Rne5iVAfoAjr5AL3OqE53MaoDdAEhH6DXGdXpLkZ1gC5gXAegl70hmzOYK/NgkgcrroUZa/NkThnVAQCAlWhWXQBAtzOuAwAAhRHyAQCgMEI+AAAURsgHAIDCCPkAAFAYIR8AAAoj5AMAQGGEfAAAKIyQDwAAhRHyAQCgMEI+AAAURsgHAIDCCPkAAFAYIR8AAAoj5AMAQGGEfAAAKIyQDwAAhRHyAQCgMEI+AAAURsgHAIDCCPkAAFAYIR8AAAoj5AMAQGGEfAAAKIyQDwAAhRHyAQCgMEI+AAAURsgHAIDCCPkAAFAYIR8AAAoj5AMAQGGEfAAAKIyQDwAAhRHyAQCgMEI+AAAURsgHAIDCCPkAAFAYIR8AAAoj5AMAQGGEfAAAKIyQDwAAhRHyAQCgMEI+AAAURsgHAIDCCPkAAFAYIR8AAAoj5AMAQGGEfAAAKIyQDwAAhRHyAQCgMEI+AN3uhiSnk1x/zvPXn33+ho5XBAAAnJfNScaTnEpyJEkzydGzj8fPvg4AAPSYDyQ5k5mAP/vnzNnnAQCAHrQ5yVieHfLHoosPAAA9bW43XxcfAAAKMLebr4sPAACF+EBmLrbVxQcAgEJsTvLp6OIDLMp98gHoGdfl3tf+WL6+57rc+9qqawHoZkI+AD1hX4bf2kg+tT3bn99IPrUvw2+tuiaAbiXkA9D19uaedzTSuHl3dg8+J8/J7uwebKRx897c846qawPoRkI+AF3tutzznsEM3rg7u9dvyqYkyaZsyu7sXj+YwRuvyz3vqbhEgK7TqLoAAFjI3tz7y4NZ877d2TW0Nmt/4PUzOZP7c3B0IuMfvDsv+7UKSgToSkI+AF3p2gz/1oasffuu7No6mMEFl5vIRA7m4MipnLn5nux5fwdLBOhaQj4AXWdfvvJv12Xtm3dn19b+9C+5/FSmcn8OjozlzKfuykt/oQMlAnQ1IR+ArvLyDH9yYzb9xM7s3NJYwWmqmWYeyAPHT+bEn96ZPW9pY4kAXU/IB6BrvDxfu2UoG151Va4eWu02vp1Do6M59cU78+L9rawNoJcI+QBU7sdy+8BELrhtKEPXXJkf2ni+2/tOvntyNKP3DebJ1/xZXj3ZihoBeomQD0Cl9uTeLesycNuWbH3h8/O8da3a7oP5y7HjGfnmWCZfM5yXHW/VdgF6gZAPQGVemS9emmy6bUd2XH1ZLlv6CtsVeiSPTB3JkUPJidd8Ka96tNXbB+hWQj4AldiX+67uS267OM+5/JJc0rb3OZzDeSzff3g6ec1dueZQ294IoIv4xlsAOu663PfiRhp3XJJL2xrwk+SSXJJLcunljTTuuC73vbitbwbQJXTyAeiol+crr0jyp5fnuZt3ZEfH3vdIjuThfO+pJD9xZ156R8feGKACOvkAdMze3Pu66Uzf/rxc0dGAnyQ7siPPyxWbpzN9+97c+7qOvjlAhwn5AHTEdbn3jUn+61W5cs22bKukhm3Zlqty5Zok//VsPQBFEvIBaLt9GX5rI/nUzuzM1myttJat2Zqd2ZlG8ql9GX5rpcUAtImQD0Bb7c3wOxpp3Lw7uweHsuovsm2poQxld3YPNtK4eW+G31F1PQCtJuQD0DbX5Z73DKb/xt3ZvX5TNlVdzrNsyqbszgvWD6b/xutyz3uqrgegldxdB4C22Jt7f3kwa963O7uG1mZt1eUs6EzO5P4cHJ3I+Afvzst+rep6AFpByAeg5fZm+LfWZe3bd2XX1sEMVl3OkiYykYM5ODKWMzffnT3vr7oegPMl5APQUq/IfR9fk3U/uzu7tvanv+pylm0qU7k/B0fGM/af7sg15vSBnibkA9AyL89XP7kx639iZ3ZuafTgKaaZZh7IA8dP5vSf3pmXvKXqegBWq/eOwAB0pZfna7cMZcOrrsrV3XELnfPw7RwaHc2pL96ZF++vuhaA1RDyATgvP5bbByZywW1DGbrmyvzQxqrraZXv5LsnRzN632CefM2f5dWTVdcDsBJCPgCrtif3blmXwdu2ZMsLn5/nrau6nlZ7MH85djzHvzmWidcM52XHq64HYLmEfABW5ZW579Kk77Yd2XH1Zbmsd66wXaFH8sjUkRw5lEy/5ku55tGq6wFYDl+GBcCK7c1dO5vJXRflot0lB/wkuSyX9V+Ui3Y3k7v25q6dVdcDsBw6+QCsyLX58ksG0n/rpblsx8W5uOpyOuaxPJZH88iRyUy97p5c99Wq6wFYjJAPwLLtyz2vbGTgC5fnuZt3ZEfV5XTckRzJw/neU81M/s27cu2Xqq4HYCHGdQBYluty799opu+25+WKWgb8JNmRHXlertjcTN9t1+Xev1F1PQALEfIBWNJ1ufeNjeS/XJUr12zLtqrLqdS2bMtVuXJNI/kv1+XeN1ZdD8B8hHwAFrUvw29tJJ/amZ3Zmq1Vl9MVtmZrdmZnGsmn9mX4rVXXA3AuIR+ABe3N8Dsaady8O7sHh9LzX2TbUkMZyu7sHmykcfPeDL+j6noA5nLhLQDzui73vWdN+n51Z3ZtWp/1HXnPm5rJO1twZrqp+czP526v1a+dzuk8kIMnxjP9K1/ONR9eXcUArSXkA/AD9ubeXx7Mmvftzq6htVlbdTkrcu4HhbmP2/FakpzJmRzMwePjGf/Q3XnZr7V2jwBWzrgOAM+yN8O/tT7rbvgrecEPBPzZbvZNzWd3ts99be5z8y271DaWs/5C67XiXwJWam3W5gV5wZb1WXfD3gz/VucrAHi2gaoLAKB7vCJf+fiarP3Z3dm1tT/zf5FtqzvjC43oLNU9rzrYn2swg9mdF2y9Pwff/op8Zesdeak5faAyQj4ASZKX56uf3JD1P7EzO7c0FpnmXCxQryZsr2ad5czuz34I6OQHgP7056/kBVsfyANvfnm+OnRnXvKWzr07wDOEfOgd1yZ5Q5JXJNmV5MIkv5Hkn1dZFOXoSyZ2ZddgK7e51JjNar2zsXQnf6l/KWiXRhrZlV1bvpav/UySNv0GgDnOJHkiycEkdyT5XJJ7Kq2oCwj50P1+OMmvJ/mRJJ/MTLD/RpLvJ5lO8i8qq4yiTCefPJiDS3byV6Kd4XqxUZ4qNdPMA3ng+HTyp0l08qH9+pI8JzPny1cn+aMk/yPJP83M+bKWXHgL3W1/ZroR/z3JlZk5YN2a5NHMBHxomTvzkrecyqlPfSsHRqYyteByq+3OL7ReK7r9C83qd9pUpvKtHBg5lVOfMqoDHTOdmfPirZk5T16ZmfPmPZk5j9ZSl/Q9gHn8cGYOUD+b5JaKa6FGZu6us/btO7Nr62CePb0z2zGfb959vm76cu47346Lazt5n/xZE5nIAzk4cjpnbr47e96//GqBNtmf5D9lZty1dh19IR+61x9nphPhy3XouL2595fXZM17d2XXlrm30eymsZhuciZncn8Ojk5k/IPukw9d5T1JfjzJT1dcR8cZ14HudG1mZvAFfCpxd172a2cy+b/fnwMnTud01eV0tdM5nftz4MR4Jv+FgA9d58OZOZ9eW3UhnSbkQ3d6Q2YusoXKfDnXfHgiUzccyIHTJ3IiiS7+uU7kRA7kwOmJTN3w5VzjQzl0p09m5rxaK0I+dKdXJLm96iLg7uz5eDPNt9+f+ydGM1p1OV1lNKO5P/dPNNN8+93Z8/Gq6wEWdHtmzqu1IuRDd9qVGl4kRHe6K3s+0Uze/EAeyEhGqi6nK4xkJA/kgTSTN9+VPZ+ouh5gUd/IzHm1VvzDK3SnsSQb4jaZdJHrcu/faKTxJz+U56/Zlm1Vl1OZYzmW7+bB8WaaP/XlvOy/Vl0PsKS+JKeSrKu6kE4S8qH7rMnMt/f5/yddZ1/ueWUjA1+4PM/dvCM7qi6n447kSB7O955qZvJv3pVrv1R1PcCyNVOz82qtdhZ6SO0ORvSOa/Pllwyk/9ZLc9mOi3Nx1eV0zGN5LI/mkSOTmXrdPbnuq1XXA6xI7c6rZvIBWJF7ct1XpzPxisN59OHDOVx1OR1xOIdzOI8+PJ2JVwj4QC+o1Sddwl6vAAAgAElEQVQa6CG16zjQe16Z+y5N+m7bkR1XX5bL+quup10eySNTR3LkUDL9mi/lmkerrgdYldqdV2u1s9BDancwojftyb1b1mXwti3Z8sLn53nFXdT2YP5y7HiOf3MsE68ZzsuOV10PsGq1O68a1wFg1YbzsuMDObZ3JCP3fCffPVl1Pa30nXz35EhG7hnIsb0CPtBravWJBnpI7ToO9L6X52u3DGXDq67K1UNV13K+vp1Do6M59cU78+L9VdcCtETtzqs6+QC0xJ158f7RnPzCwRw83kyz6nJWpZlmDubg8dGc/IKAD/QyIR+AlrkzL3nLqZz81LdyYGQqU1WXsyJTmcq3cmDkVE5+6s685C1V1wNwPoR8AFrqjlzzjtM5ffOBHBiZyETV5SzLRCZyIAdGTuf0zXfkmndUXQ/A+RLyAWi5u7Pn/WMZu/FbOTB6JmeqLmdRZ3Im38qB0bGM3Xh39ry/6noAWqFWFyBAD6ndBUKU6brc8541GfzVq7Nz04ZsqLqcH3Aqp3IoD5wYz8SvfDnXfrjqeoC2qd15tVY7Cz2kdgcjyrU3w+/oS+MjO7Nz/aZsqrqcp53IiTyQB05Pp/nuu7Pn41XXA7RV7c6rtdpZ6CG1OxhRtn0ZfmszzX+/MzsHh1L9HTZHM5oH8sBEI42/f1f2fKLqeoC2q915tVY7Cz2kdgcjyndd7n1jI/nMVbkqW7O1sjpGMpJv59tpJm/6cl722coKATqpdufVWu0s9JDaHYyoh72593VJ4/M/lOev2ZZtHX//YzmW7+bB8aT5+rvzsls7XgBQldqdV2u1s9BDancwoj5enq+8IsmfXp7nbt6RHR173yM5kofzvaeS/MSdeekdHXtjoBvU7rxaq52FHlK7gxH1cl3ue3F/GrdemksuvDgXt/39HstjeTSHn5hK83VfzjVfa/sbAt2mdufVWu0s9JDaHYyon3257+q+5LaL85zLL8klbXufwzmcx/L9h6eT19yVaw617Y2Abla786ovwwKgEnflmkONnNr3eB6//5E8MtWO93gkj0w9nsfvb+TUPgEfqJNafaKBHlK7jgP1tSf3blmXgdu2ZOsLn5/nrWvVdh/MX44dz8g3xzL5muG87Hirtgv0pNqdV3XyAajUcF52fCBP7h3JyD3fyXdPtmKb38l3T45k5J6BPLlXwAfqqFafaKCH1K7jAEny8nztlqFseNVVuXrV35j17RwaHc2pL96ZF+9vZW1AT6vdeVUnH4CucWdevH80o184mIPHm2muaN1mmjmYg8dHM/oFAR+oOyEfgK5yZ/a85URO/dG3cmBkKsu7HncqU/lWDoycyKk/ujN73tLmEgG6npAPQNe5Ky/9hZM5ffOBHBiZyMSiy05kIgdyYORkTt98V176Cx0qEaCrCfkAdKV7suf9Yxm78Vs5MHomZ+Zd5kzO5Fs5MDqWsRvvyZ73d7hEgK5VqwsQoIfU7gIhWMh1uec9azL4q1dn56YN2fD086dyKofywInxTPzKl3PthyssEeh+tTuv1mpnoYfU7mAEi9mbe97Rl/6P7MzO9ZuyKSdyIg/kgdPTmXr33bn241XXB3S92p1Xa7Wz0ENqdzCCpezL8Fubaf77y3LZ4CN5ZKKRxt+/K3s+UXVdQE9wXgW6wsruHQg1cV3ufeOP5evfvS73vrHqWoCe4rwKdAUHIwBondqdV91dBwAACiPkAwBAYYR8AAAojJAPAACFEfIBAKAwQj4AABRGyAcAgMII+QAAUBghHwAACiPkAwBAYYR8AAAojJAPAACFEfIBAKAwQj4AABRGyAcAgMII+QAAUBghHwAACiPkAwBAYYR8AAAojJAPAACFEfIBAKAwQj4AABRGyAcAgMII+QAAUBghHwAACiPkAwBAYYR8AAAojJAPAACFEfIBAKAwQj4AABRGyAcAgMII+QAAUBghHwAACiPkAwBAYYR8AAAojJAPAACFEfIBAKAwQj4AABRGyAcAgMII+QAAUBghHwAACiPkAwBAYYR8AAAojJAPAACFEfIBAKAwQj4AABRGyAcAgMII+QAAUJiBqgsAAKCzPntTmlXX0EmfvCV5y/567bOQDwBQQ3v2VF1B59RpX5NkeNi4DgAAFEfIBwCAwgj5AABQGCEfAAAKI+QDAEBhhHwAACiMkA8AAIUR8gEAoDBCPgAAFEbIBwCAwgj5AABQGCEfAAAKI+QDAEBhhHwAACiMkA8AAIUR8gEAoDBCPgAAPePyfVVXUI1z93up38NA+0oBAIDWeviuqiuo1txwP/vzfL8TnXzoNlfcuj9b3zqSK27dX3UpANTP5fueCY/zdY/nvj73+XPXbeV6862z1LbP12K1zff7WW0dK/ndXL5vJtDPhvq5P59LJx+6yRW37k+z8fns+qfJ4cOfzxW3vj4Pve6WqssCoB5mQ+Tszwu9ttTjhX5e7XrnrrPcmuZbfj4LrbPc/VhpHcutf6nfx2LvI+RDt5gN+FdfnWzZkmzcmBw6JOgDUInZEDn38VLLr+T55b5+Pttu5/KtGBs639/pYusL+dANzg34ycz/Xn21oA9A11jtSEw7L5btlgtxu+13I+RD1eYL+LMEfQC6xHyjJO1crx3bXum4zkqsZhvt/N248BaqtFjAnzUb9JuNz7sYF4BOWSxwdrprvZz1lrPM7IWq5/45n222ar1Wd/R18qEqywn4s3T0AeiAuXP4883kL/Taare5kvVaue3lWk4N8733crv6K61/uRf0JkljeYsBLbWSgD/X8ePJoUNJoynoA7Bqn70pzT17ll5uJaGyNL2878PDOvnQeasN+ImOPgBtdW4nuVdDbrdYrDPf7t+tTj500vkE/Ll09AE4D8vt5NObhoddeAud06qAn7gYFwBYlJAPndDKgD9L0AcAFiDkQ7u1I+DPEvQBgHkI+dBO7Qz4swR9AGrg8n3P/FnOsktt49xlFnquV7m7DrRLJwL+LHfdAaBg830z7EJ3p1kqmM+33tztzf7cy7fQTHTyoT06GfBn6egDUHNLhf9eDu0rJeRDq1UR8GcJ+gDU2FIhfrkjPyV8IBDyoZWqDPizBH0AmNfDdz3zZ27Qn30831hQr87lC/nQKt0Q8GcJ+gDwLEt15mfD/6zZwH/uB4JeIeRDK3RTwJ8l6APAipUwqpMI+XD+ujHgzxL0ASBJb3bjz4dbaML5uKyLA/4st9cEoMfNN0M/a7md98W2Md+25i7fi539RtUFQM+67Nb96evygD/X8ePJoUPJdPP1eUTQB6izz96U5p49VVdBuwwPG9eB1em1gJ8809Hva3w+lxndAYCSCfmwUr0Y8GcJ+gBQC0I+rEQvB/xZgj4AFE/Ih+UqIeDPEvQBoGhCPixHSQF/lqAPAMUS8mEpJQb8WYI+ABRJyIfFlBzwZwn6AFAcIR8WUoeAP0vQB4CiCPkwnzoF/FmCPgAUQ8iHc9Ux4M8S9AGgCEI+zFXngD9L0AeAnifkwywB/xmCPgD0tIGqC4CuUGHAb35m69M/N9400vbXlm026B869Plcduvr88jrblndhgCAThPyoeKAPzeEz33cjtdWTNAHgJ5kXId6u+y2n2xFwJ/tnDc/s/VZXfTFlp3PqsN4Oz1rdOe2n6y6HABgaUI+9XXZbT+ZvulbWtXBn+2YN9408gNBfjb8L9RVX86Hg0o9HfSnbxH0AaD7CfnUU4sDfrJwF35u+F8o4C/04aCrCPoA0DPM5M+4Nskbkrwiya4kFyb5jST/vMqiaKOT/24ku/63jszgnxvezw36XTmis5AtW5JLLkkOfuATSbr4EwmLOJPkiSQHk9yR5HNJ7qm0IqASw8NVV0A71T3k/3CSX0/yI0k+mZlg/40k308yneRfVFYZ7TX0tv05fPjz2bixY0F/1nldCFu148eTw4eTobf9XEb+0EW4vakvyXMyc/x7dZI/SvI/kvzTzBz/gBp44zvTqLqGDmsm9drnOo/r7M9M9+q/J7kyMye4W5M8mpmAT8keet0taTRfn0OHZoJrCyx31KanA/6hQ0mj+fo85C47PWw6M8e5WzNz3LsyM8fBezJzXASgALX6RDPHD2fmhPazSYSVOrvi1v1ptubuOnPHclYS5Lv2PvlzCfh1sD/Jf8rM+KKOPlCa2nXya7Wzc/xxZjpXH664DrpBC4J+T4/gLEXAr5P3JPnxJD9dcR0ArVa7kF/HcZ1rMzODL+Azow2jO8UQ8Ovmw5k5Pl5bdSEAnJ86hvw3ZOYiW3jGeQb9Irv4An5dfTIzx0kAelgdQ/4rktxedRF0oYded0sa/Tr6iYBfb7dn5jgJQA+rY8jfFReVsZCHXi3oC/h1943MHCcB6GG1ugDhrLEkG+I2mSzmitv3pzl13nfd6TkCPjPNn1NJ1lVdCEAL1e7C21rtbJI1mfm2x7rtN6tRt6Av4POM2p0MgeLV7rhWq509q3Z/yZyHugR9AZ9nc5wESlO741odZ/Jh+eowoy/gA0BxhHxYSslBX8AHgCIJ+bAcJQZ9AR8AiiXkw3KVFPQFfAAompAPK1FC0BfwAaB4Qj6sVC8HfQEfAGpByIfV6MWgL+ADQG0I+bBavRT0BXwAqBUhH85HLwR9AR8AakfIh/PVzUFfwAeAWhLyoRW6MegL+ABQW0I+tEo3BX0BHwBqTciHVuqGoC/gA0DtCfnQalUGfQEfAIiQD+1RRdAX8AGAs4R8aJdOBn0BHwCYQ8iHdupE0BfwAYBzCPnQbu0M+gI+ADAPIR86oR1BX8AHABYg5EOntDLoC/gAwCKEfOikVgR9AR8AWIKQD512PkFfwAcAlkHIhyqsJugL+ADAMgn5UJWVBH0BHwBYASEfqrScoP90wO8X8AGAZRHyoWqLBf1nBfxXC/gAwLII+dAN5gv6Aj4AsEqNqguoQDP13G96wRW3709z6vO55JLk8GEBn6o4TgKlcVyrgWbVBcCirrh9f676iwdzxe37qy6F2nKcBErjuFYD/pIBFuc4CZSmdsc1M/kAAFAYIR8AAAoj5AMAQGGEfAAAKIyQDwAAhRHyAQCgMEI+AAAURsgHAIDCCPkAAFAYIR8AAAoj5AMAQGGEfAAAKIyQDwAAhRHyAQCgMEI+AAAURsgHAKA0NyQ5neT6c56//uzzN3S8ItquWXUBAF3OcRLodZuTjCc5leRIZo5rR88+Hj/7OoVx8gJYnOMkUIIPJDmTmWPa7J8zZ5+nQE5eAItznARKsDnJWJ4d8seii18sJy+AxTlOAqWY283XxS+ckxfA4hwngVLM7ebr4hfOyQtgcY6TQEk+kJmLbXXxC+fkBbA4x0mgJJuTfDo16+I3qi6gAs3Uc78BlstxEgr32Zt8mC/dQNUFAADQeXv2VF0B7TI87BtvAQCgOEI+AAAURsgHAIDCCPkAAFAYIR8AAAoj5AMAQGGEfAAAKIyQDwAAhRHyAQCgMEI+AAAURsgHAIDCCPkAAFAYIR8AAAoj5AMAQGGEfAAAKIyQDwAAhRHyAQCgQpfva/02hXwAACiMkA8AwJJmu82X7/vBzvPc1+Y+N9+yS21/vscLbWuxmpbzXu3al9XUvdj+r8bA+a0OAEBdXL4vefiuH/x5Ja+dz3su930XCsirqXe1+7KaultJyAcAYFkWC6LnG1Jnw/nc/11tTctZt537spxtLPT6uf+CsNp6hHwAAFqulReTtuPC1E68/2rWa1V3X8gHAKDlWjl+stJtLWdcp53vP1vDueM5neTCWwAAlqXdHe3ljOosZ1sP3zX/n9XUtJr3b8U65/shSScfAIBlmXtR61Iz7XOD7fkE1lZua6HttmNfzt3+UkG/1RffNlq3qZ7RTD33G2C5HCehcJ+9Kc09e1a2TjvuAFOVkvZlPsPDOvkAAHTIYt3sXgvd3b4vQj4AAEvqxG0lO6WkfVmIC28BAKAwQj4AABRGyAcAgMII+QAAsISqv3V3pYR8AABYQrdfaHsuIR8AgMpdvu+Zbvm5XfPZ1+Z7/tx1W7nefOsste1u4RaaAABUau6XU80Xpud20Rd7vNDPq11voS/NWmrb3UAnHwCArnFuWF4qPC/0+mrXa8W2u4FOPgAAXW21IzHtHKXp1jGdWUI+AABda77RmHauV/W2W8W4DgAAXWOxwNzpjv5y1uvGgJ/o5AMAULGH73omLM/9eanXVrvNlazXym13UqPqAirQTD33G2C5HCehcJ+9Kc09e6quYmHdeLeaXjI8rJMPAEDFzu2EC/jnT8gHAKBSQn3rDbz0tX+7WXURnXT4O9/MJVe+sFb7/JX/9mn/7A7n412fqdUxI3f/UbL379Rrnz/2JsdJoCgDSbKnm4eyWq1O+5pkeHi46hKgCJfV6dhRp31N8ojjJFAgt9AEAIDCCPkAAFAYIR8AAAoj5AMAQGGEfAAAKIyQDwAAhRHyAQCgMEI+AAAURsgHAIDCCPkAAFAYIR8AAAoj5AMAQGGEfAAAKMxA1QUAANB5w8NVV0A7CfkAADXzxnemUXUNHdZM6rXPxnUAAKAwQv4Cbv7NX6q6BAAAWBUhfwFv/ye/UXUJAACwKpWF/Jt/85ee7paf2zWffW2+589dt5XrzbfOUtsGAIBuU8mFtzf/5i893SmfL0zP7aIv9nihn1e73rnrLLem+fZjln8RAACg0yq/u87b/8lvPCsgLxWKF3p9teu1YtvLXQYAADqh8pA/n9WOxLRzlMaYDgAAvaLrQv58ozHtXK9V2zauAwBAt6g85C8Wxjvd0V9oJn852xbmgV73vb97eZ77+w+3dftzzX2vua+dW8NirwEwv0pC/tw5/Plm8hd6bbXbXMl6rdw2QC/pRICe7z3O/XAx9/FirwGwsMZLX/u3m3v27Km0iOV00Fmd4eHhfOW/fbpWX+MMLfeuzzQva8FxcrYj/dzff3je8DprvlA7d935trna9RYL0K3soC8WzqsO+Y8MDycfe5PjJJStmaRW/z+v7Baacwn4QOnODa4LvbbU45UE4OWst1BoXk64Pnc/Zi0W5pdaBoDWqGxcB6Cu5nbYZx8vtfxKnl/u6+ez7eUus9Dyxm4A2qvyC28BWLgr3q71Or1tgR6gs4R8gIotNgvfjvVate2VjusA0DlCPkCHLRbGO93RX87YTCvCvPEcgM6qdcif70uuzr1e4Nzbey62rYWWc6ExcO6dbs6dyV/otdVucyXrtXLby3nPc993ta8BsLCuuIVmVWZD/Xz3vZ99fqkPAfM9v9z1OsEtNKEFWnQLzbl0truHW2hCLbiFZjudG6rnC8JzA/Fyu+jzvc98680X6s99v9WE8aU6/Dr3wGLf9goArdbxcZ3FQvVyX1vu9lfyHvN9yGiV1X5YAcoh1APQSR0P+YuF3FYE4KW2sdDrs8+fbw3zfUjoltEdAADqoasvvJ1vVr6d67WDQA8AQKd1dchfTUCebzynU3TpAQDoBn2dfsNOdue7IeB3078qAABQD5XM5M93d53Flltq2cW2v1TIXqz7vlgN890FaL5lV7sfAACwWh29T75xls5zn3xogTbcJ5/u4T75UAvuk9/tFuvM+wABAAAdDvmduEUmAADUXccvvAUAANpLyAcAgMII+QAAUBghHwAACiPkAwBAYYR8AAAojJAPAACFEfIBACjNDUlOJ7n+nOevP/v8DR2vqMOEfAAASvPxJP1JPpDkyNnnjp593H/29aIJ+QAAlOapJDdmJtBvP/vctrOPbzz7etGEfAAASvTrSZrnPNc8+3zxhHwAAEr0VJIPJxk/+3j87OPiu/iJkA8AQLnmdvNr08VPhHwAAMo1282fSI26+EkyUHUBAADQRr+eZGdq1MVPzob84eHhqusA6GqPOE4CBfnC/5XvnjmT51ddR4f9raoL6JS1a/Ngo+oiKtBMUsf9Blgux0ko3GdvSnPPnqqroF2Gh83kAwBAcYR8AAAojJAPAACFEfIBAKAwQj4AABRGyAcAgMII+QAAUBghHwAACiPkAwBAYYR8AAAojJAPAFAza9fmwaproL2EfACAmjlzJs+vugbaS8gHAIDCCPkAAFAYIR8AAAoj5AMAQGGEfAAAKIyQDwAAhRHyAQCgMEI+AAAURsgHAIDCCPkAAFAYIR8AAAoj5AMA0DUu3/fM/87+PN9rc5+bb9mltj/f44W2tVhN3Wqg6gIAAGCuy/clD9/1gz+v5LXzec+Vvm830skHAKCrLBagzzdcP3zXszvzy91et4f6c+nkAwDQs1o5PtMrozjLIeQDANCzWtlh77Vu/WKM6wAA0FVW21Ff7nqzIzuLhfpe7+rr5AMA0FXmzs0vNZ8/N4yfTye+ldvqBo2qC6hAM/Xcb4DlcpyEwn32pjT37Km6ivn1wp1rut3wsE4+AACFWWzUpi4fIIR8AAC6RitCeF2C/GJceAsAAIUR8gEAoDBCPgAAFEbIBwCAwgj5AABQGCEfAAAKI+QDAEBhhHwAACiMkA8AAIUR8gEAoDBCPgAAFEbIBwCAwgj5AABQGCEfAAAKI+QDAEBhhHwAACiMkA8AAIUR8gEAoDBCPgAAFEbIBwCAwgj5AABQGCEfAAAKM1B1AQAA0IumppKxsZk/Z84kExPJ5OTM89PTSbOZNBpJX1/S358MDCSDg8natcm6dTN/+vvbU5uQDwAAyzA+njz1VHLiRHLiqUyfOZOsGcyRxkAOTU/nq+MT+cr0dJ4YaGRkqpHTaWYqjfT3N7N+spmtfX25cM1gXtzXlxdPTWfn5JlctHZtsmlz+jZtSjZvTtasaU2tQj4AACxgbCwZGUmePJYTY2MZXLsuX+8byO0TU/mPP/3O3He+2/+T/yPXnOrPm0+eyGsf+sv8yLp1mbhgWzZt3TrT6V8tIR8AAM5x9Ghy5GimTp3M+Nq1+X9Pnc5H3/TO/LdWv89P/a+5L3nmw8Jnbsprm8dy/eHD+esbNmbNju3p37595dtttLDGXtFMPfcb/v/27jzK8ruuE/77LrV2d/WW7nR3OgthJOOIB2Oc44LoUWA4YwwhLM44oyij6DwGEjYF9HE/BiIykLCMDKOD4AzPyCYCehSQ53EGxBkbZIYhRIFsvVdXL1Xdtd57f88fnQ5Np/eu6l/V975eOX1y6966v/v+5Z7+3Hd986174XyZk1C4P35bqptuqjvF8rOwkIyPJ/v3pTMwlPubrbzln/1E3lFXnr/4g/xsr5eXLszmhs1Xpr1p0/E9/eeyY0d/DnEvXgBnZ05C4ZT8bzS/kOzbm4X9+zMwMpKPdGby6ptvz3115zrhY2/LN7dHcvfMTG65cnMWrtySgbOV/R07bNcBAKBP9XrJ3r3J3r2pmu28q9fOrz7r32RP3blO9egPHM/+4Duy9cCh/Pr+8fz0li1pbNly/J17TqcfV2qsUAGcnTkJhbOSnxw4kOzambn2QD7enclLbn5JHqo70/n62FtzbWswb+1088yrrs7QFVd84+1W8gEA6CvT08kjj2R+fiEPdRfyoh/+t/l03Zku1KM/kNzy4bfkqbt35/cPTOTaa67O0Ojo179HyQcAoC/s2ZPs2Z3O8HDu+qGfzq/XnedS3frSfDrJDX/+e/m1L9+XX9q6Le2tW4/fdoZdPAAAUIbp6eTLX8rUgQP5bLOdJz7rp1Z+wT/Zs34qv9Zs54kHDuSzX7ovk0l/7rm01xTg7MxJKNwfvy3VNdckmzbVnWTp7d+fziOPpN1o5WW3/tvcU3eepfaR380rxsZySz8OcS9eAGdnTkLhPvS2fFuzmXeuGsm2J1yfbYODdSdafPPzyYMPZNf0TMY73bzottvzd3Vnupz6cYh78QI4O3MS+sQfvz2/0ujlF6+6OtNXXpn1dedZLPv2ZXzXzoxVjdz1nJ/Lb9Sdpw79OMS9eAGcnTkJfeTDb8l3NNp5w2A711/7hFyzenXdiS7e0aPJgw9m59xCHmh08opbX5q/rTtTXfpxiHvxAjg7cxL60Ifemp9pNHLX2vWZvWZ7rlpJW3jm55OdD2fPkakMdbt57W0vyX+oO1Pd+nGIe/ECODtzEvrUH/27jAwO5ZfSyC9uviKTW7Zm7cBA3anObGEh2bsnR/aPZyzJXfNz+a0feUVm6s61HPTjEPfiBXB25iT0uY/++1zVq/LaXpXbN2zIg1u35rrh4bpTfd3sbLJnTx48eDDXNRt5W7OR1/3w/5VddedaTvpxiHvxAjg7cxJIknzwHdna7OT2VLl9ZCQHtmzL2Ib12VxXnoOHsn/v7kzOzOSKRjNv7bby9uf+bPbUlWc568ch7sUL4OzMSeBx/vjteVGjl59MK09ZP5bDV2zOtWvWLP3jTk0lB/bnoUOTWZduvlA1867n/Fz+09I/8srWj0PcixfA2ZmTwBl9+O25oerlea1WfrRX5fpVq7N37Vjaa8eyfWQ0zUs9/sx0eocn89Dk4fSmp7Ol0cgD3W7e22jmA7f+XO5fjHPoB/04xL14AZydOQmclw/cm+3tVn4wyff1ku9JI08cHMi+0aF0hkczNjycje120molzWbSaCRVlfR6SbebdDrJ7EwOzMzkyMxs2vOdbE2VrzaTzyT5q043f/m8O7Kz7vNcifpxiHvxAjg7cxK4KB/+vazpzeTJaeSGRpUnVI1c1ehlU6+ZtY1GRlKllV66VTMzzV6OVM2MN6rsqhp5IFXub47ki7f+VKbqPg9WpqruAADLnDkJlObX6g7A0vPiBXB25iRQmr6ba5f8yxEAAMDyouQDAEBhlHwAACiMkg8AAIVR8gEAoDBKPgAAFEbJBwCAwij5AABQGCUfAAAKo+QDAEBh+qHkvzLJTJI7T7n+zkevf+VlTwSwvJiTAKw4a5LMJ5lOciBJlWTi0a/nH70doJ+Zk0DpqroDsDRel2Qux5/gE3/mHr0eAHMSKJuSX6g1SWbzjS9es7E6BXCCOQmUTMkv2MmrVFanAB7PnARKpeQX7ORVKqtTAI9nTiSOfegAACAASURBVAKlUvIL97oc/yUyq1MAp2dOAiVS8gu3Jsn7Y3UK4EzMSaBEfVfyGzc+/fl9d9L95vOffH+j7gywot3xIXOydPfeZk5C2aokffX3vJ0kN910U905WCI7duyoOwIU4Spzsli7zEmgQP3wibcAANBXlHwAACiMkg8AAIVR8gEAoDBKPgAAFEbJBwCAwij5AABQGCUfAAAKo+QDAEBhlHwAACiMkg8AAIVR8gEAoDBKPgAAFEbJBwCAwij5AABQGCUfAAAKU1TJf+fdr6k7wqIq7XyA+ux84dV1R1gyJZ8bwMUqquQDAADnKPknVpLfefdrHreqfPJtJ193uu891/FP9/WZjnWmTKfLc6GW+nzPdb/TPf7Zjm2lH+pzYvV45wuvftxK8sm3nXzd6b73XMc/3ddnOtaZMp0uz6VY6nM/1/1O9/hnO7aVfqAftc/1De+8+zV58atf/7jLF3LbhTrXsU73uC9+9etP+5hnKsJnyrbU53sx5wYsTztfeHW2v/uRx12+kNsu5THP93G3v/uRcz7mmYrwme6z1Od+MecJwNeds+SfrWReagE9uZhfSKG9kMe90IxLeb7nc4zz/UHh1Mt+GIDL72zF8lJL58nF/EJK7MU+7oXebynP/XyOcb4/KJx62Q8DQL84Z8m/EIu5fWQlbEW52IyXem5W+mHlWcwtIytt+8nF5r3U87TSD/SzRS35i1k4F+tYF7pd50JczDFOtz0HKN9ilsylKKwXul3nQlzMMU63PQeA83fOd9dZ6tXq89mqcylF+MR+/VP/LPZjXcz9FmtFH6jHUq9QX8pe+gt1Yu/+qX8W+3Ev5n6LtaIP0E/Oa0/++ez7Pvn7zvW9F/KYF3qsS93CstTne+rxz1X0bcmB5etECT9x+Xy+71zfeyGPeaHHWsxtK0t97qce/1xF35YcgG/UuPHpz69uuumm097YbwWzxPPdsWNHPv/J9zfqzgEr2h0fqq46ZU72c6ks7dx37diR3HubOQllq5L01d/zRd2TfzpnW6kurVAn/Xe+wMU72+p0SSX6dPr53AEuh7Ou5LPyWcmHRXCalXzKYSUf+kLfreSf8xdvAQCAlUXJBwCAwij5AABQGCX/IvgAK4Cz8+FVAPVS8i+Cd8kBODvvkANQr2VZ8t9592seWy0/ddX8xG2nu/7U+y7m/U53n3MdG2Cp7Hzh1Y+tlp+6an7ittNdf+p9F/N+p7vPuY4NwNJY8vfJv1AnfyDV6cr0yavoZ/v6TJcv9n5n+qCscx0bYLGd/GFUpyvTJ6+in+3rM12+2Pud6UOyznVsABbfslzJP+HUsnyu8nym2y/2fotxbICldGpZPld5PtPtF3u/xTg2AItv2a3kn8vFbolZyq00tukAy8nFbolZyq00tukAXF4rquSfbmvMUt6v7mMDXKjTbY1ZyvvVfWwATm9Zb9c5W2G+3Cv653M/BR+43M5WmC/3iv753E/BB7g8lt1K/otf/frHyvLJl89128Ue80Lut5jHBrhY29/9yGNl+eTL57rtYo95IfdbzGMDcPEaNz79+dVNN91Ud44z8m41l2bHjh35/Cff36g7B6xod3youmoZz0nvVnNpdu3Ykdx7mzkJZauS9NXf82W3kn/qSriCD/CNTl0JV/ABONWyK/lKPcDZKfUAnMuy/sVbAADgwin5AABQGCUfAAAKo+QDAEBhlHwAACiMkg8AAIVR8gEAoDBKPgAAFEbJBwCAwij5AABQGCUfAAAKo+QDAEBhlHwAACiMkg8AAIVR8gEAoDDtJNmxY0fdOQCWtV3mJAAsa1XdAQCWOXMSKE3fzTXbdQAAoDBKPgAAFEbJBwCAwij5AABQGCUfAAAKo+QDAEBhlHwAACiMkg8AAIVR8gEAoDBKPgAAFEbJBwCAwij5AABQGCUfAAAKo+QDAEBhlHwAACiMkg8AAIVR8gEAoDBKPgAAFEbJBwCAwij5AABQGCUfAAAKo+QDAEBhlHwAACiMkg8AAIVR8gEAoDBKPgAAFEbJBwCAwij5AABQGCUfAAAKo+QDAEBhlHwAACiMkg8AAIVR8gEAoDBKPgAAFEbJBwCAwij5AABQGCUfAAAKo+QDAEBhlHwAACiMkg8AAIVR8gEAoDBKPgAAFEbJBwCAwij5AABQGCUfAAAKo+QDAEBhlHwAACiMkg8AAIVR8gEAoDBKPgAAFEbJBwCAwij5AABQGCUfAAAKo+QDAEBhlHwAACiMkg8AAIVR8gEAoDBKPgAAFEbJBwCAwij5AABQGCUfAAAKo+QDAEBhlHwAACiMkg8AAIVR8gEAoDBKPgAAFEbJBwCAwij5AABQGCUfAAAKo+QDAEBhlHwAACiMkg8AAIVR8gEAoDBKPgAAFEbJBwCAwij5AABQGCUfAAAKo+QDAEBhlHwAACiMkg8AAIXph5L/yiQzSe485fo7H73+lZc9EcDyYk4CsOKsSTKfZDrJgSRVkolHv55/9HaAfmZOAqWr6g7A0nhdkrkcf4JP/Jl79HoAzEmgbEp+odYkmc03vnjNxuoUwAnmJFAyJb9gJ69SWZ0CeDxzEiiVkl+wk1eprE4BPJ45CZRKyS/c63L8l8isTgGcnjkJlEjJL9yaJO+P1SmAMzEngRL1XclvfNc//9EH5uYXrqs7CEtjaHDgwc/+2XufUHcOWMmaP/+nD/Tm5q6rOwdLozk09GDvDT9kTkLZqiSNukNcTu25+YXrbrrpprpzsER27NhxXd0ZYKXrzc1dd5U5Waxd5iRQoH74xFsAAOgrSj4AABRGyQcAgMIo+QAAUBglHwAACqPkAwBAYZR8AAAojJIPAACFUfIBAKAwSj4AABSmOTQ48GDdIQCWs+bQ0IN1ZwCAC9Gcm1+4ru4QAMtZb27uurozAMCFsF0HAAAKo+QDAEBhlHwAACiMkg8AAIVR8gEAoDBKPgAAFEbJBwCAwij5AABQGCUfAAAKo+QDAEBhlHwAACjMsi7577z7NY/9+8Tl09128nWn+95zHf90X5/pWGfLBHC57Xzh1Y/9+8Tl09128nWn+95zHf90X5/pWGfLBMDl0a47wLm88+7X5MWvfv3jLl/IbZfymBf6uACX284XXp3t737kcZcv5LZLecwLfVwAlt6yXslPctYCfanl+sWvfv03rMyf7/GUemA5OVuBvtRyvf3dj3zDyvz5Hk+pB6jXsl/JvxCLuX3GVhygRIu5fcZWHIDlq6iSv5gr7FbrgRIt5gq71XqA5WvZb9e52BX1873fiS07Zyv1VvWB5exiV9TP934ntuycrdRb1QdYXpb9Sv7J++bPtT//5DJ+KSvxi3ksgKV28r75c+3PP7mMX8pK/GIeC4DF17jx6c+vbrrpprpznJZ3rrl0O3bsyOc/+f5G3TlgRbvjQ9VVy3ROeueaS7drx47k3tvMSShblaSv/p4v+5X8S3W2rTZ+gAA4+1YbP0AArEzLuuQvRglX5IGSLUYJV+QByrPsf/EWAAC4MEo+AAAURskHAIDCKPkAAFAYJR8AAAqj5AMAQGGUfAAAKIySDwAAhVHyAQCgMEo+AAAURskHAIDCKPkAAFAYJR8AAAqj5AMAQGGUfAAAKIySDwAAhVHyAQCgMEo+AAAURskHAIDCKPkAAFAYJR8AAAqj5AMAQGHadQcoRbfbzezsbGZnZzM3N5eFhYV0Op10u930er1UVZVGo5Fms5lWq5V2u52BgYEMDQ1leHg4w8PDabVadZ8GwJKput0szM6mMzubztxcegsL6XY6qbrdVCfNyUazmUarlVa7nebAQNpDQ2kPD2dgeDgNcxLgvCj5F2l+fj5TU1M5evRopo4e683NzWWoPXCg0Wp8pdur/m52bu7zzWbG02gcrrqZaVXpdhtpNVoZSVWt6/WyaWR48CmtRvMpnar3TQvz85uHhoazZvXq5urVq7NmzZoMDg7WfZoAF607P5+5qanMHT2auaNHe925uTQHBg80Ws2v9Dq9v6sW5j+f9MZT5XDSmEkj3VRpJdVIGlmXNDc1Bgef0mw0n1Kl+029+YXNraGhDK1e3RxavTpDa9akZU4CnJaSfwFmZ2dz+PDhHDw4cXR2bm5gcHDwi+1281MLnfn3fv4Tf/S5Sz3+Tc/6F98+Mz3zI8emjj39oYcf+tbhoaGFDRs2rl63bl2Gh4cX4xQAllRndjYzhw9n+tCho52Z2YGB4aEvptn6VHe+897c85zP9S7weFWS7klfd1/2kW9fmJ75kbmjU0/vPvTwt7ZHhhdG169fPbJuXdrmJMBjlPzzMDExkQMT492ZYzPz7aGhT8zNzt7z+U+8/5OL/Tg7/vy/fi7JYz8s3PiM5z/9wMGDd+7ds+cZI6tGBq/YuKm1cePGxX5YgEs2PTGRY+MHuguz0/ONweFP9Gam78m9t31yYbEf6M23fG7hpDnZueNDTz9a5c6pvXueMTA8Orhq0xWtUXMSQMk/k4WFhYyPj2f/vn2dgaHB+9NqvuVvP/5H77icGR79QeKTSfLdt77wZ/fu2/vSRx5++IbNV17Z3rRpUwYGBi5nHIBv0F1YyLHx8Rzdv7/TGhy8P83mW6o33fqO6nKGuPe2T/YenZO91/7Fz07t2/fSw488csPqzZvbqzZtSsucBPqUkn+KhYX57Nm7d2F8//jA0MjIR7pV49V/+9E/vK/uXH/94Xe/I8k7bnzGv/jmg4cP371nz55bNm3etLB1y5aBgQF7UoHLp7uwkMm9exem9+8faI6MfqSqOq/u3P3s2udk53X/7B1J3pGXffCbjx0+cvfUnj23jG6+cmFsy5UDyj7Qb5T8R/V6vezduze7d++uBloD72q2u7/62Y++Z0/duU71+U/81/uSPPumZ9229dCBQ7++f9/+n962bVtjy5YtaTa9IyqwdKpeL1N792Zq996qMdB6V5rVr/buftaym5N583Pv6yXPzss+uHXm4MSvT+/b/9Nrtm1prNmyJQ1zEugTSn6SAwcO5JFdj8wNttofb6R6yf/8+P/zUN2ZzmXHn39oT5KfufEHn/tbhw5OvHXf+L5nXn3V1UNXXHFF3dGAAh07cCBHdu6aa7SbH8/gwEuqN9687Odk3vzcPVXyM3nlx37r2MGJtx7dN/7MtVdfNbTKnAT6QF+X/Onp6Ty88+H5hbn5hzrznRft+NQffbruTBfq83/5wYeS3PKUH3juU3fv3f37EwcOXnv1NduHRkdH644GFGB+ejqHdz4y35ufe6hamH9R9abnrbg5mTfe/FAvuSUv+cBTp3bv+f1jBw5cu+6aa4YGzUmgYH37/y337NmTL993X6fX6d71N3/23id94VMfXHkvXCf5wqc++On/8afvvaHT7bz+y/fdv7Bnz/L7P+jAyjK1Z0/G7/9yp1ro3dV9ww8/KW9dgQX/ZG993qe7b7z5hl6v+/rxL3+5M2VOAgXru5I/PT2d++67b2r8wMRnG43GEz/z0T/89bozLaa//th7fq3RqP7R+IGJz37pS1+arDsPsPIsTE9n35fumzo2ceCz6bWe2PntZxU1J7t3//NfS9V64rGJic/u+7I5CZSpnSTj4+PZtGlT3VmW3L79+zs7H3mk3Wg2fvlzH3/fPXXnWSo7PvG+h5N8943P+hev2LB+3S1154ESHBsfz6o+mJNT+/Z1JnfubKfV/OW86dZi52TuveXhbvLdecVHXjG8fsMts3XnAVhkjac88wXf1q6a7xxdNbrtCU+4bttggR8RPj8/nwe+9sCu6Znp8U6qF33h4+/7u7ozASvInR/6tjSa7xwcGd224fonbGsVOCe78/M5+OCDu+aPHR1PVb0o99xmTgIlqZI06g5xOT12st/29Bf8Shq9X9y+7arpLVu2rq8z1GLau2/v+K5du8aqqnHX333yfb+R5Nce/QNwYV76x7+SRn5x7VXbp1dv2VzMnJzcs298aveusVS5K295jjkJlKh/S36S3PiM531HI403DA4NX3/dtddes3r16rpyXbKjR4/mwQcf3Dk/N/dA1ahe8flPfOBvH72p755kYBG95MPfkVb1hvbQ4PXrr73umsEVPCfnjx7NwYce3Nmdn38gncYr8tZbzUmgVH031057st/+Ay/4mTSru9auXz979fbtV62kLTzz8/N5+OGdeyanDg+lk9d+7lPv+w+nfEvfPcnAErjjQz+TNO4aXjs2u+6aa65aSVt4uvPzOfzwzj2zU4eH0qtem3tvMyeB0vXdXDvjyX7Xd71gZHpVfqlZ9X5x06ZNk9u2bVs7sIw/FnxhYSG7d+8+Mj4+PtZrNO8aPZbf+uxn3zdzmm/tuycZWCIv/6ORdAd/KVX1i6uu3Dy5ZsuWta1lPCe7CwuZ2rv3yLF9+8fSaNyV1vxv5U0/Yk4C/aDv5to5T/YpP/iCq1qtxmurXu/2des3PHjVtq3XDQ8PX45s52V2dja7du958PChg9c1ms23dbvV677wl+/bdZa79N2TDCyxl3/0qlSd16ZX3T68Yf2Da7duu669jOZkZ3Y2R/bsfnD24KHr0my8LY326/KmHzYngX7Sd3PtvE/2pmfdtnWh07y9ldw+Mjp64MrNV45t3Lhx81KGO5uJiYn9+/bvm5yZnr6im7xtoN17244//9D5fLJJ3z3JwGXysg9uTS+3p9G8fWBk+MDqzVvHRjeur21OTk8c2n90/57JhZnZK5LqrWlUb8+bn2tOAv2o7+baRZ3stz/j+S+qevnJZrPxlLVr1x7etHnztWvWrFnsbI8zNTWV8f37Hzpy5Mi6Xq/6QqOZd33uE+//Txd4mL57koEa3PHHL0ojP5lUTxlat+7wmk2brx26DHNybmoqU+P7H5o7fHhd0vhCqrwr9z7HnAT6Xd/NtUs62e/4gRfc0Gn2ntdutn+0qrrXj6xavXfd2Fh7bN3a7aMjo5f8abrTM9O9ycOHHzo0Odmbnp7Z0krjgU6v8952r/mBv/3U++6/yMP23ZMM1OjOD9+QXvd5abZ/NFXv+oFVq/eOrB1rD42t3T64auSS5+T8sZne7NThh2aPTPYWpqe3pGo8kF7nvWm2PpB7bjUnAY7ru7m2aCf7rd//3O3tgeYPpup9XxrN76mqPHGg3d43MjraGRkZGRsZHt7YbrfTarXSbDbTaDRSVVV6vV663W46nU5mZqYPzMzMHJmdmWvPdxa2Nhr5aqreZ9Jo/lVnofeX//v/++DORYjad08ysEy89APb02z/YHq970sz35NUT2y2hva1R0c6AyPDYwPDwxtb7XYarVYaJ83JqtdL1e2m2+lkYXrmwMLc7JGFmZl21ZnfmuSr6TU+k2bzr9Lr/GXe8jxzEuDx+m6uLdnJ3vDUZ68ZHR56cq/KDWn0ntBMdVV6jU29ZG2j0RhJ0krSrapqppkcSbMa76WxK1XzgWYj90/Pzn3x/k//ydQSROu7JxlYpn7hw2sy33tyurkhqZ6QNK5K1duURmNt0hhJI61U6SbVTKrqSBrN8aTalTQeSCv3Z7D5xfz2reYkwLmZa32gqjsAwDJnTgKl6bu5dsn7QQEAgOVFyQcAgMIo+QAAUBglHwAACqPkAwBAYZR8AAAojJIPAACFUfIBAKAwSj4AABRGyQcAgMIo+QAAUBglHwAACqPkAwBAYZR8AAAojJIPAACFUfIBAKAwSj4AABRGyQcAgMIo+QAAUBglHwAACqPkAwBAYZR8AAAojJIPAACFUfIBAKAwSj4AABRGyQcAgMIo+QAAUBglHwAACqPkAwBAYZR8AAAojJIPAACFUfIBAKAwSj4AABRGyQcAgMIo+QAAUBglHwAACqPkAwBAYZR8AAAojJIPAACFUfIBAKAwSj4AABRGyQcAgMIo+QAAUBglHwAACqPkAwBAYZR8AAAojJIPAACFUfIBAKAwSj4AABRGyQcAgMIo+QAAUBglHwAACqPkAwBAYZR8AAAojJIPAACFUfIBAKAwSj4AABRGyQcAgMIo+QAAUBglHwAACqPkAwBAYZR8AAAojJIPAACFUfIBAKAwSj4AABRGyQcAgMIo+QAAUBglHwAACqPkAwBAYZR8AAAojJIPAACFUfIBAKAwSj4AABRGyQcAgMIo+QAAUBglHwAACqPkAwBAYZR8AAAojJIPAACF6ceS/+t1BwAA4LLS//rAbPrzhxuA81XVHQBgETVzvP/1lX4su+NJttQdAgCAy2JLjve/vtKPJf/vk3xL3SEAALgsviXH+19f6ceS/5kkP1B3CAAALosfyPH+R+H+aZKv1R0CYBmzJx8oyddyvP/RBz6c5OV1hwBYppR8oBQvz/HeR5/4liTTSW6uOwjAMqTkAyW4Ocf7nt/F7DMnnngr+gDfSMkHVrqXx4JuX/uWHP9fOF9NcleSZybZlv78hWSAE5R8YCVp5nh/e2aO97mv5Xi/6+sV/EbdAZaJf5rk2Um+J8mTkmxK8vokv1pnKABO68Ek19WcAVg+5nL8ffD/PsffRedPkvzPWhMBABfM/2kAThisOwAAsDiUfIBzsPccAAAKo+QDAEBhlHwAACiMkg8AAIVR8gEAoDBKPgAAFEbJBwCAwij5AABQGCUfAAAKo+QDAEBhlHwAACiMkg8AAIVR8gEAoDBKPgAAFEbJBwCAwij5AABQGCUfAAAKo+QDAEBhlHwAACiMkg8AAIVR8gEAoDBKPgAAFEbJBwCAwij5AABQGCUfAAAKo+QDAEBhlHwAACiMkg8AAIVR8gFY7l6ZZCbJnadcf+ej17/ysicCAAAuyZok80mmkxxIUiWZePTr+UdvBwAAVpjXJZnL8YJ/4s/co9cDAAAr0Joks/nGkj8bq/gAALCinbyabxUfAAAKcPJqvlV8AAAoxOty/JdtreIDAEAh1iR5f6ziA5xVo+4AAPSvO5N1VfLERnJdI7m2mcaTmmlsT3JllWp9laypUo30ksEqaTeS1on7Vkm3kXSayXwjjZlGMtVI41CV7E+qhzupvpLkwSp5sJF89Z7kcH1nCnB5KfkAXBZ3JE9OctNgGk9Lmjd203tiUo20054ezEA1msHBwQysGkg77bTSTiutNNNKM800HvvnhOrRf3qp0k0v3fTSSTeddLOQTuYyf2w2C/NzWWh00hlNGjOtNL+a9D4/n+q/Jdlxb/LF2v6DACwhJR+AJXFH8r0Dad3cSJ7RSffJA2nNjWa4O5rhsVUZbg9nMINpX7Y88+lkNvOZzuzCscxOTWe2tZDuUDutLyb5+Hy6f3pv8t8vWyCAJaTkA7Ao7kyubKX57Gaa/6qTzncNpT0zllXtsaxasyrDaX99p82y0Uk3xzKbyRybmsyxzlw6I+20P9tJ5z9XyUfuSfbVnRHgYij5AFy025ONw8mPNdL6yW66/2RNRic3ZOyKsYwuy1J/Lp10M5npTGRy4mim17TS+lLS/YOZ5D1vSybqzgdwvpR8AC7Yy5Kb22m+Yj6971+b0cObsnbjuqyuO9aiO5yjmciRA4cyvX4ozb9aSO+Nb04+VncugHNR8gE4Lz+XrF6V1s/30vuZgbQHNmfd2IasHWj2wUtJL1UmcmRhPIcnF9JZaKb5jmPp/s7bk6N1ZwM4nfInMwCX5GXJ1oG0f6OTzgvHsmpySzZcsSrDdceqzbHMZl8OHjiSY2MDaf/BfDq/+uZkT925AE6m5ANwWrcnG1el/Yb5dH7iiowd2pKNGy/nu+Esd/PpZHcmDh7M5LrBtP/gWDo/b98+sFwo+QA8zqsy8PpuFl6+MWNTW7Nx44Byf0YL6WRPJiYmMrmmldabfifd19SdCUDJB+Axr0jrBY1Ub16V4fb2bNo8nMG6I60Ys5nPzozvP5bZTtK7843J++vOBPQvJR+AvDK5opnme5LGd16TK9evzaq6I61YR3IsD2ffoaT6m156P/7G5EDdmYD+s/LexBiARfXKNH+8l/zF+oxtfVK2b7B6f2mGM5grs35kIZ31xzL/iqemufOvU/2vunMB/cVKPkAf+4W0/7Cb6ubrs3XdmozUHac4U5nJ17LncCuNj/12Oj9Wdx6gfyj5AH3ojuSawbQ+tirDm67P1isbXg6WTJUqX8vu/ccyt38+3ZvvTR6uOxNQPlMdoM+8NHlaK40/2ZL1jW3ZuLbuPP1idyaO7M2hqpvq2W9J/lvdeYCy2ZMP0Edenua/qlJ9+PpcObA560frztNP1mR0eDDt9uEc+8mnpfn3n0n1xbozAeVS8gH6xKvSfHEvvd99UrYPrs1q878Goxlqrslo80CO/PBTk/G/TnbUnQkokyEP0AdeleaLO6nefEOuHlntF2xrNZSBjGVVezxTT39amvs/k+pzdWcCyqPkAxTuzuQ5VarfvyFXj6zKcN1xSDKYdsYyOrA/R571nckX/yb5ct2ZgLL4xVuAgt2R3NRI/vqbctXAWGzBX24mM51/yK6FKvnue23dARaRkg9QqJcmY+00vrw9mzZuylqfcLVMHcyR2YcyfqiT6h+/JZmsOw9QhmbdAQBYGkNpf3hDxgYU/OVtQ9YOX5GxweG0/qTuLEA57MkHKNDPp/l/t9J+9jdl2xV1Z+Hc1mbV6IFMrX5qqsFPp/Ie+sAls10HoDB3JN/UTL78zbm2ORKL+CvFTOZzXx7q9ZJ/fG/yD3XnAVY223UACjOU1u9ty4ajCv7KMpLBbM3GY0Np/V7dWYCVT8kHKMidybOTPHlLNo7VnYULtzUb1iR58suTW+rOAqxsSj5AQQbS+u3t2by+7hxcvO3ZvL6Z1m/XnQNY2ZR8gEK8PLmllcYV67O67ihcgvVZnXYam6zmA5dCyQcoRDOtX96aDRvqzsGl25KNG5tp/XLdOYCVS8kHKMCdyQ3d9L5lQ9Z617QCbMxYuul9y53JDXVnAVYmJR+gAO20fmpD1szXnYPFsyFr5ptp/Zu6cwArk5IPUIAq1fOuyNi6unOweK7I2LpGqufXnQNYmZR8XRNeBgAAB69JREFUgBXu5clVSbVtdUbqjsIiOv58VtuOP78AF0bJB1jhuslTRzJ8rO4cLL6RDB/rJk+tOwew8rTrDgDApRlI4/vXZHhN3TmWyo9Xf//Y5fc0nlRjkstvLCNjs5n9/qT6o7qzACuLkg+wwjXSvHE0I4N151gKP179fd8V+5ONZHigkeaNSbfuKMAKY7sOwApXpXf1UAbqjrHoTqzgn/rvU687+frSDGUgVXpX150DWHmUfIAVrpdq/UBadcdYdCdW8M+0kn9ilf89jScVW/QH0kov1fq6cwArj5IPsML1kpFWH47zftjG00ozvXjbJODC9d+rAkBZGkmajfig2xI9+rx6rQYumMEBsLJVSXpVqrpzsAQefV57decAVh4lH2CFayYzXT2wSN300kxm6s4BrDxKPsAK10zj0IK3WCzSQrpppnGo7hzAyqPkA6xwVZoPz2Wh7hhL4uRfrj3T5dN9XYrjz2vz4bpzACuPkg+wwjXT+8KxzM7WnYPFN5PZuaT3v+rOAaw8Sj7ACjef6v89mpljdedg8U1l5thCqk/VnQNYeZR8gBWulXx6JrOr6s7B4pvO7Ggr+XTdOYCVR8kHWOHelOxKGruPehOWohx/Phu7jz+/ABdGyQcoQDOND05kyruwFORAJg820/hg3TmAlUnJByjAQrr/cSKTQ3XnYPEczNTwQrr/se4cwMqk5AMU4J7k/laa/2ciR7xhfgEO5ki3leb/uSe5v+4swMqk5AMUopfub+7JwSN15+DS7c7BI710f7PuHMDKpeQDFOJNyUd6qcYPZaqqOwsX71Cmql6q8TclH6k7C7ByKfkABVlI91W7Mn647hxcvF0ZP7yQ7qvqzgGsbEo+QEHuST5aJV/cnQnbdlagXZmYrJIv3pN8tO4swMqm5AMUZi7dn9qbg2tmMl93FC7ATOazLwdXz6X7U3VnAVa+Vt0BAFhcf5McfFqamczMkzdlrU/CXSG+kl3jSfXbb0r1obqzACtfo+4AACyNV6X9qfVZ9a1XZ/PGurNwdg9l/8EjOfa/fiedH6g7C1AG23UACjWXzq0HMjk/niOzdWfhzA7kyMzBTM7NpXNr3VmAcij5AIV6SzLZTXXLw9nfmsx03XE4jclM56Hsb3dT3fKWZLLuPEA5lHyAgt2b7Ggk//Ir2TV3LBb0l5Njmc1XsmuunfzLe5MddecByuIXbwEK99nkvqeluXd/Jp8xltGBwbTrjtT3jmU292fndDvNl74x1X+pOw9QHiUfoA98JtXnnpaBA/tz6JmrM9oeykDdkfrWVGby99k5O5T2y9+Q7jvrzgOUSckH6BOfSW/H96b51f05cttIBqqRDNmyeZkdzFTvK9nda6X5wt9J9w/qzgOUy1toAvSZlyZPa6XxJ9uyPluycV3defrFnkwc3pND6aZ69luS/1Z3HqBsSj5AH7ojuWYwrY+tytDm67Ntc8PLwZKpUuVr2b3/WOb2z6d7873Jw3VnAspnqgP0sVel/Z+rVD90fbauW5ORuuMUZyoz+Vr2HG6k8ae/k86/rjsP0D+UfIA+98o0/3Uv1b/flLHO9mxeX3eeUjyc/QcnMjnQSOPn/l16f1h3HqC/KPkA5JXJFc0035M0vvOaXLl+bVbVHWnFOpJjeTj7DjVS/Y9uej/2xuRA3ZmA/qPkA/CYVyTPa6Rx72hGBq7Opk3DGaw70ooxm/k8kvHx6cwsdFO99M3JB+vOBPQvJR+Ax/n5DNzdycLL1mds8qpsvGLAB2id0UI62Z2JiYOZXNPOwJvfkIVX150JQMkH4LRuTzauSvsN8+n8xIaMHd6WjRt8Wu7XzaeTPZk4OJHJdQNpv2s6nV94WzJRdy6ARMkH4BxelmwdTPs3F9L58bGsPrIl6zetynDdsWpzLLPZm0Pjkzm6tp32uxfS+ZU3J3vqzgVwMiUfgPPyc8nqkbReVaX3s4NpD2zOunUbsrbV7IOXkl6qHMiRzoEcPjKfzkIzrd+dTueNb0+O1p0N4HTKn8wALLqXJTcPpPnKufS+b31GD23M2ivWZXXdsRbd4RzNRI4cOJTp9UNp/tVCem98c/KxunMBnIuSD8BFuz3ZOJT862ZaL+qm+09WZ3RqY8Y2jmU07bTqjnfBOulmMtOZyOTE0UyvaaX1pW6675pP/tB+e2AlUfIBWBR3Jlcmec5gWj+6kO53DqY9vSar2uuyamxVhpdl6e+km2OZzZEcm5zMsc58OqMDaf3NQrr/pUo+fE+yr+6MABdDyQdgSdyRfG87rR9qJM/opvutA2nNDWe4N5bhsZEMt4YzmMv5bj3z6WQ285nJbHcys5OzmW0upDvUSut/J/n4Qrp/dm/y3y9bIIAlpOQDcFnckTw5yU3tNL4vad5YpXd9Uo20054ezkBvKANDQxkYHchAo51W2mmllWZaaaaZxmP/nFA9+k8vVbrppZteOummk24Wjhf6o7NZWJjPQqOTzmjSmGml+dVGen83l+qvkuy4N/libf9BAJaQkg9Abe5M1lXJExvJdUmuGUjjm6o0rmkkV1ap1lfJmirVSC8ZrJJ2I1/f81Ml3UbSaSbzjTRmGslUI41DVbKvSvVwN9U/JHm4Sh5sJF+9Jzlc24kCXGb/P5563CU2DK2QAAAAAElFTkSuQmCC;" parent="1" vertex="1">
                    <mxGeometry x="-190" y="-310" width="761" height="1170" as="geometry"/>
                </mxCell>
            </root>
        </mxGraphModel>
    </diagram>
</mxfile>